<svg width="203" height="61" viewBox="0 0 203 61" fill="none" xmlns="http://www.w3.org/2000/svg">
<path d="M43.2279 2.74336V29.45C43.2279 35.9834 39.9007 39.5834 33.8474 39.5834C27.7942 39.5834 24.5203 35.9834 24.5203 29.45V2.74336H26.9657V29.45C26.9657 34.4634 29.3442 37.13 33.8474 37.13C38.3506 37.13 40.7826 34.4767 40.7826 29.45V2.74336H43.2279Z" fill="#E44431"/>
<path d="M157.438 11.81C157.451 11.65 157.465 11.4767 157.465 11.29C157.465 7.02336 154.057 2.69003 147.55 2.69003C141.042 2.69003 137.407 6.66336 137.407 13.5834V28.77C137.407 35.69 141.055 39.6634 147.416 39.6634C153.777 39.6634 157.465 35.3434 157.465 31.0634C157.465 30.9034 157.465 30.6367 157.425 30.3434H153.576C153.202 32.7167 152.748 35.6767 147.683 35.6767C143.26 35.6767 141.296 33.5434 141.296 28.7567V13.57C141.296 8.85003 143.287 6.65003 147.55 6.65003C151.331 6.65003 153.362 8.42336 153.576 11.85L157.438 11.7967V11.81Z" fill="#00788B"/>
<path d="M180.275 2.86336V28.77C180.275 35.7967 176.693 39.6634 170.172 39.6634C163.651 39.6634 160.124 35.7967 160.124 28.77V2.86336H164.012V28.77C164.012 33.4234 166.03 35.69 170.172 35.69C174.315 35.69 176.386 33.3567 176.386 28.77V2.86336H180.275Z" fill="#00788B"/>
<path d="M199.303 8.09003C198.327 7.55669 196.363 6.61003 193.717 6.61003C189.602 6.61003 187.504 8.34336 187.504 11.7567C187.504 15.3834 189.855 16.4367 193.677 17.8367C197.766 19.33 202.844 21.1967 202.844 29.09C202.844 35.7967 199.143 39.65 192.702 39.65C188.666 39.65 185.7 38.25 184.163 36.57C183.548 35.9034 183.923 36.2634 183.562 35.73L186.167 33.09C187.116 34.2367 188.653 35.6767 192.475 35.6767C196.777 35.6767 198.955 33.5434 198.955 29.33C198.955 24.21 195.682 22.9967 191.9 21.5834C188.011 20.13 183.615 18.49 183.615 11.9434C183.615 6.11669 187.41 2.63669 193.757 2.63669C196.47 2.63669 199.918 3.31669 201.334 4.75669L199.303 8.09003Z" fill="#00788B"/>
<path d="M99.952 20.73C99.952 11.6634 107.007 4.29003 115.68 4.29003C124.352 4.29003 131.408 11.6634 131.408 20.73C131.408 29.7967 124.352 37.17 115.68 37.17C107.007 37.17 99.952 29.7967 99.952 20.73ZM134.615 20.73C134.615 9.82336 126.116 0.943359 115.68 0.943359C105.244 0.943359 96.745 9.82336 96.745 20.73C96.745 31.6367 105.244 40.5167 115.68 40.5167C126.116 40.5167 134.615 31.6367 134.615 20.73Z" fill="#00788B"/>
<path d="M110.215 13.1034C110.789 13.1034 111.27 12.57 111.27 11.9034C111.27 11.2367 110.802 10.73 110.215 10.73H106.62C105.992 10.73 105.471 11.2367 105.471 11.8634V29.6233C105.471 30.25 105.979 30.7567 106.62 30.7567H110.215C110.802 30.7567 111.27 30.2367 111.27 29.5833C111.27 28.93 110.789 28.3833 110.215 28.3833H107.809V13.1167H110.215V13.1034Z" fill="#E44431"/>
<path d="M121.158 28.37C120.557 28.37 120.076 28.9034 120.076 29.57C120.076 30.2367 120.557 30.7434 121.158 30.7434H124.753C125.394 30.7434 125.902 30.25 125.902 29.6234V11.8634C125.902 11.2367 125.381 10.73 124.753 10.73H121.158C120.557 10.73 120.076 11.25 120.076 11.9034C120.076 12.5567 120.557 13.1034 121.158 13.1034H123.564V28.37H121.158Z" fill="#E44431"/>
<path d="M83.5295 39.53V22.9434H91.6138V19.0634H83.5295V6.66336H97.8007V2.69003H81.5385C80.4427 2.69003 79.641 3.49003 79.641 4.58336V39.53H83.5295Z" fill="#00788B"/>
<path d="M83.5028 2.69003H79.641V8.75669H83.5028V2.69003Z" fill="#00788B"/>
<path d="M69.6858 9.02336V39.53H72.1311V4.33003C69.6056 6.44336 71.2332 5.08141 70.2031 5.94336C69.6056 6.44336 69.4346 6.58646 67.4944 8.21003L60.5859 23.1567L52.2343 5.11669C51.8601 4.35669 51.0851 3.09003 50.2433 3.09003C49.4682 3.09003 49.0139 3.54336 49.0139 4.33003V39.53H51.4592V8.98336L60.5725 28.3034L69.6724 9.02336H69.6858Z" fill="#E44431"/>
<path d="M53.6775 8.21003L51.1252 2.75669H49.0273V6.35669L53.6775 8.21003Z" fill="#E44431"/>
<path d="M67.4944 8.21003L70.0332 2.75669H72.1445L72.1378 3.54336L72.1311 4.33003C70.2031 5.94336 67.4944 8.21003 67.4944 8.21003Z" fill="#E44431"/>
<path d="M4.04886 7.26336L2.01775 2.71669H0V7.73002L4.04886 7.26336Z" fill="#E44431"/>
<path d="M2.45871 39.53L2.3919 8.34336L15.7812 36.81C16.2623 37.7567 16.7968 38.6234 17.505 38.6234C18.1197 38.6234 18.7343 38.2767 18.7343 37.49V2.69003H16.289L16.3424 32.7434L3.18029 5.45003C2.67252 4.46336 2.05784 3.43669 1.22936 3.43669C0.400877 3.43669 0 3.83669 0 4.53003V39.53H2.45871Z" fill="#E44431"/>
<path d="M14.779 34.6767L16.9705 39.5301H18.721L18.7076 34.2101L14.779 34.6767Z" fill="#E44431"/>
<path d="M11.4116 59.53C11.6254 59.6234 11.906 59.6767 12.2401 59.6767C12.5742 59.6767 12.8548 59.6234 13.0686 59.53C13.2824 59.4367 13.4561 59.29 13.563 59.0767C13.6833 58.8767 13.7501 58.65 13.7902 58.4234C13.8303 58.1834 13.857 57.89 13.857 57.53V52.45C13.857 52.1034 13.8436 51.81 13.7902 51.57C13.7501 51.33 13.6699 51.1167 13.563 50.93C13.4561 50.73 13.2824 50.5967 13.0686 50.5034C12.8414 50.41 12.5742 50.37 12.2401 50.37C11.906 50.37 11.6254 50.41 11.4116 50.5034C11.1978 50.5967 11.0241 50.7434 10.9172 50.93C10.797 51.13 10.7301 51.3434 10.6901 51.57C10.65 51.81 10.6232 52.09 10.6232 52.45V57.53C10.6232 57.89 10.65 58.1834 10.6901 58.4234C10.7301 58.6634 10.8103 58.89 10.9172 59.0767C11.0241 59.2767 11.1978 59.4234 11.4116 59.53ZM12.2401 60.9434C11.6254 60.9434 11.1043 60.85 10.6633 60.69C10.2224 60.5167 9.8883 60.2634 9.62105 59.93C9.36716 59.5967 9.18008 59.1967 9.05982 58.7567C8.93956 58.3034 8.88611 57.7834 8.88611 57.1967V52.81C8.88611 51.5967 9.15336 50.69 9.66113 50.0634C10.1823 49.4367 11.0375 49.13 12.2267 49.13C13.416 49.13 14.2712 49.45 14.7924 50.0767C15.3135 50.7034 15.5808 51.61 15.5808 52.81V57.21C15.5808 58.4234 15.3135 59.3434 14.7924 59.9967C14.2712 60.65 13.416 60.97 12.2267 60.97" fill="#00788B"/>
<path d="M19.7499 54.2634H20.5249C21.2732 54.2634 21.7944 54.1433 22.075 53.89C22.3556 53.6367 22.5026 53.1567 22.5026 52.45C22.5026 52.1567 22.5026 51.9167 22.4759 51.73C22.4625 51.5433 22.4224 51.3567 22.3823 51.1967C22.3289 51.0233 22.2621 50.9034 22.1819 50.81C22.1017 50.7167 21.9814 50.6367 21.8345 50.57C21.6875 50.5033 21.5138 50.4633 21.3133 50.4367C21.1129 50.41 20.8724 50.3967 20.565 50.3967H19.7633V54.2634H19.7499ZM18.0395 60.8233V49.2367H21.0728C22.1418 49.2367 22.9035 49.5034 23.3845 50.05C23.8656 50.5967 24.1061 51.3833 24.1061 52.4367C24.1061 53.3833 23.8522 54.1167 23.3311 54.6367C22.8099 55.1567 22.0616 55.4234 21.0862 55.4234H19.7499V60.8233H18.0395Z" fill="#00788B"/>
<path d="M26.057 60.8233V49.2233H30.8007V50.4233H27.7674V54.25H30.2395V55.41H27.7674V59.6633H30.8408V60.8233H26.057Z" fill="#00788B"/>
<path d="M32.9788 60.8233V49.2233H34.1414L37.629 56.9167V49.2233H39.0454V60.8233H37.9631L34.422 52.89V60.8233H32.9788Z" fill="#00788B"/>
<path d="M49.0139 60.9433C48.5061 60.9433 48.0652 60.8767 47.6777 60.7433C47.2901 60.61 46.9828 60.4367 46.7423 60.21C46.5017 59.9833 46.3013 59.7033 46.141 59.37C45.9806 59.0367 45.8737 58.69 45.8203 58.3167C45.7668 57.9433 45.7267 57.53 45.7267 57.0767V52.9833C45.7267 52.49 45.7534 52.0633 45.8203 51.6767C45.8871 51.29 45.994 50.9433 46.141 50.61C46.2879 50.2767 46.4884 50.01 46.7423 49.7967C46.9828 49.5833 47.3035 49.41 47.691 49.29C48.0785 49.17 48.5195 49.1033 49.0273 49.1033C50.1364 49.1033 50.9248 49.3833 51.4058 49.9567C51.8869 50.5167 52.1274 51.3433 52.1274 52.45V53.37H50.5105V52.5567C50.5105 52.3833 50.5105 52.2367 50.5105 52.1433C50.5105 52.0367 50.5105 51.9167 50.4972 51.77C50.4972 51.6233 50.4704 51.5033 50.4571 51.4233C50.4303 51.3433 50.4036 51.2367 50.3769 51.13C50.3502 51.0233 50.3101 50.93 50.2566 50.8633C50.2032 50.7967 50.1497 50.73 50.0695 50.6633C50.0027 50.5833 49.9092 50.53 49.8157 50.5033C49.7221 50.4633 49.6152 50.4367 49.4816 50.41C49.348 50.3833 49.2143 50.37 49.054 50.37C48.8135 50.37 48.613 50.3967 48.4393 50.4367C48.2656 50.49 48.1186 50.57 47.9983 50.6633C47.8781 50.77 47.7979 50.89 47.7177 51.01C47.6509 51.13 47.5975 51.3033 47.5574 51.49C47.5173 51.69 47.5039 51.8767 47.4906 52.0633C47.4772 52.25 47.4772 52.4767 47.4772 52.7433V57.33C47.4772 58.1967 47.5975 58.81 47.8246 59.1433C48.0518 59.4767 48.466 59.65 49.054 59.65C49.2812 59.65 49.4816 59.6233 49.6419 59.5833C49.8023 59.5433 49.9493 59.4633 50.0428 59.3567C50.1497 59.25 50.2299 59.13 50.2967 59.0233C50.3635 58.9033 50.4036 58.7567 50.4437 58.5567C50.4704 58.3567 50.4972 58.17 50.4972 58.01C50.4972 57.8367 50.4972 57.6233 50.4972 57.3567V56.5033H52.114V57.3567C52.114 57.7967 52.0873 58.1967 52.0205 58.5433C51.967 58.89 51.8601 59.2233 51.7131 59.53C51.5662 59.8367 51.3791 60.09 51.1519 60.29C50.9248 60.49 50.6174 60.65 50.27 60.7567C49.9092 60.8767 49.495 60.93 49.0273 60.93" fill="#00788B"/>
<path d="M56.7909 59.53C57.0047 59.6234 57.2854 59.6767 57.6194 59.6767C57.9535 59.6767 58.2341 59.6234 58.4479 59.53C58.6617 59.4367 58.8354 59.29 58.9423 59.0767C59.0492 58.8767 59.1294 58.65 59.1695 58.4234C59.2096 58.1834 59.2363 57.89 59.2363 57.53V52.45C59.2363 52.1034 59.2229 51.81 59.1695 51.57C59.1294 51.33 59.0492 51.1167 58.9423 50.93C58.822 50.73 58.6617 50.5967 58.4479 50.5034C58.2207 50.41 57.9535 50.37 57.6194 50.37C57.2854 50.37 57.0047 50.41 56.7909 50.5034C56.5771 50.5967 56.4034 50.7434 56.2965 50.93C56.1763 51.13 56.1094 51.3434 56.0694 51.57C56.0293 51.81 56.0025 52.09 56.0025 52.45V57.53C56.0025 57.89 56.0293 58.1834 56.0694 58.4234C56.1094 58.6634 56.1896 58.89 56.2965 59.0767C56.4034 59.2767 56.5771 59.4234 56.7909 59.53ZM57.6194 60.9434C57.0047 60.9434 56.4836 60.85 56.0426 60.69C55.6017 60.5167 55.2676 60.2634 55.0004 59.93C54.7465 59.5967 54.5594 59.1967 54.4391 58.7567C54.3189 58.3034 54.2654 57.7834 54.2654 57.1967V52.81C54.2654 51.5967 54.5327 50.69 55.0404 50.0634C55.5616 49.4367 56.4168 49.13 57.6061 49.13C58.7953 49.13 59.6505 49.45 60.1717 50.0767C60.6928 50.7034 60.9601 51.61 60.9601 52.81V57.21C60.9601 58.4234 60.6928 59.3434 60.1717 59.9967C59.6505 60.65 58.7953 60.97 57.6061 60.97" fill="#00788B"/>
<path d="M65.1158 59.6634H66.0779C66.3452 59.6634 66.5723 59.6367 66.7728 59.5967C66.9732 59.5434 67.1336 59.49 67.2672 59.4234C67.4008 59.3567 67.5077 59.25 67.6013 59.1033C67.6948 58.9567 67.7616 58.81 67.8017 58.69C67.8552 58.57 67.8819 58.3834 67.9086 58.13C67.9353 57.8767 67.9487 57.6767 67.9487 57.49C67.9487 57.3033 67.9487 57.0633 67.9487 56.73V52.9567C67.9487 52.6767 67.9487 52.4367 67.9353 52.25C67.9353 52.0633 67.9086 51.8633 67.8819 51.6767C67.8552 51.49 67.8017 51.33 67.7483 51.21C67.6948 51.09 67.6146 50.97 67.5211 50.8633C67.4276 50.7567 67.3073 50.6633 67.1737 50.61C67.04 50.5567 66.8797 50.5034 66.6926 50.4767C66.5055 50.45 66.2917 50.4233 66.0378 50.4233H65.1158V59.6634ZM63.4188 60.8233V49.2367H66.0779C67.4008 49.2367 68.3362 49.5167 68.8841 50.09C69.4319 50.6633 69.6992 51.5567 69.6992 52.77V57.0367C69.6992 58.3033 69.4319 59.2633 68.8841 59.89C68.3496 60.5167 67.4543 60.8233 66.1982 60.8233H63.4054H63.4188Z" fill="#00788B"/>
<path d="M72.1445 60.8233V49.2233H76.8882V50.4233H73.8549V54.25H76.327V55.41H73.8549V59.6633H76.9283V60.8233H72.1445Z" fill="#00788B"/>
<path d="M83.142 55.6767H87.7922V56.8367H83.142V55.6767ZM83.142 53.1434H87.7922V54.3167H83.142V53.1434Z" fill="#00788B"/>
<path d="M97.3998 59.6633C98.1348 59.6633 98.6425 59.5033 98.9098 59.17C99.177 58.8367 99.3107 58.29 99.3107 57.5033C99.3107 56.7167 99.1503 56.21 98.8296 55.85C98.5089 55.49 97.9744 55.3033 97.2528 55.3033H96.2373V59.6633H97.3998ZM96.2506 54.0633H97.2528C97.9611 54.0633 98.4421 53.9167 98.7227 53.6233C98.99 53.33 99.137 52.8233 99.137 52.13C99.137 51.9033 99.1236 51.7033 99.0835 51.53C99.0434 51.3567 99.0033 51.21 98.9499 51.09C98.8964 50.97 98.8163 50.8633 98.696 50.7833C98.5891 50.7033 98.4688 50.6367 98.3619 50.5833C98.255 50.53 98.0947 50.49 97.9076 50.4767C97.7072 50.45 97.5201 50.4367 97.3464 50.4233C97.1727 50.4233 96.9321 50.4233 96.6515 50.4233H96.2506V54.0633ZM94.5402 49.2367H97.3464C98.4555 49.2367 99.284 49.4767 99.8318 49.9433C100.366 50.41 100.634 51.1433 100.634 52.1433C100.634 53.6233 100.046 54.4367 98.8697 54.5833C99.5913 54.7567 100.126 55.0767 100.46 55.5567C100.794 56.0367 100.954 56.69 100.954 57.5167C100.954 58.5567 100.7 59.37 100.179 59.9567C99.6581 60.5433 98.8697 60.8367 97.8007 60.8367H94.5402V49.2367Z" fill="#00788B"/>
<path d="M103.226 60.8233V49.2233H107.983V50.4233H104.936V54.25H107.408V55.41H104.936V59.6633H108.01V60.8233H103.226Z" fill="#00788B"/>
<path d="M111.417 60.8233V50.4233H109.172V49.2233H115.279V50.4233H113.114V60.8233H111.417Z" fill="#00788B"/>
<path d="M118.232 60.8233V50.4233H115.987V49.2233H122.094V50.4233H119.942V60.8233H118.232Z" fill="#00788B"/>
<path d="M123.791 60.8233V49.2233H128.535V50.4233H125.501V54.25H127.973V55.41H125.501V59.6633H128.575V60.8233H123.791Z" fill="#00788B"/>
<path d="M132.423 54.2233H133.065C133.813 54.2233 134.334 54.09 134.655 53.81C134.975 53.53 135.136 53.0367 135.136 52.3033C135.136 51.57 135.002 51.1033 134.722 50.8233C134.454 50.5434 133.933 50.3967 133.171 50.3967H132.423V54.2233ZM130.713 60.8233V49.2367H133.171C134.414 49.2367 135.323 49.4767 135.897 49.9567C136.472 50.4367 136.766 51.2233 136.766 52.3033C136.766 53.7967 136.258 54.7033 135.256 55.01L137.007 60.8233H135.35L133.733 55.3834H132.41V60.8233H130.699H130.713Z" fill="#00788B"/>
<path d="M146.427 60.9434C145.398 60.9434 144.61 60.6367 144.075 60.0367C143.541 59.4367 143.233 58.61 143.167 57.57L144.69 57.1834C144.797 58.8367 145.371 59.6767 146.427 59.6767C146.868 59.6767 147.202 59.5567 147.429 59.33C147.656 59.1034 147.777 58.7567 147.777 58.3167C147.777 58.0634 147.75 57.85 147.683 57.6367C147.616 57.4367 147.523 57.2367 147.376 57.05C147.229 56.8634 147.095 56.7034 146.975 56.5834C146.855 56.4634 146.668 56.3034 146.44 56.09L144.383 54.3567C143.968 53.9967 143.661 53.6234 143.474 53.2367C143.287 52.8367 143.193 52.3567 143.193 51.7967C143.193 50.9567 143.447 50.3034 143.968 49.8367C144.49 49.37 145.184 49.13 146.08 49.1167C147.055 49.1034 147.79 49.3434 148.285 49.8367C148.766 50.33 149.06 51.09 149.166 52.1167L147.723 52.49C147.71 52.2367 147.67 52.01 147.643 51.8234C147.616 51.6234 147.55 51.4367 147.469 51.2367C147.389 51.0367 147.296 50.8767 147.175 50.7567C147.055 50.6367 146.908 50.53 146.721 50.4634C146.534 50.3967 146.32 50.3567 146.066 50.37C145.158 50.4367 144.717 50.85 144.717 51.65C144.717 51.9967 144.783 52.2767 144.904 52.5034C145.024 52.73 145.238 52.97 145.518 53.2234L147.59 54.9434C148.124 55.3967 148.552 55.89 148.872 56.41C149.193 56.93 149.354 57.5167 149.354 58.1834C149.354 59.0367 149.086 59.7034 148.538 60.1967C148.004 60.69 147.296 60.9434 146.414 60.9434" fill="#00788B"/>
<path d="M154.525 60.9433C154.017 60.9433 153.576 60.8767 153.189 60.7433C152.801 60.61 152.494 60.4367 152.24 60.21C151.999 59.9833 151.799 59.7033 151.639 59.37C151.478 59.0367 151.371 58.69 151.318 58.3167C151.264 57.9433 151.224 57.53 151.224 57.0767V52.9833C151.224 52.49 151.251 52.0633 151.318 51.6767C151.385 51.29 151.492 50.9433 151.639 50.61C151.786 50.2767 151.986 50.01 152.24 49.7967C152.48 49.5833 152.801 49.41 153.189 49.29C153.576 49.17 154.017 49.1033 154.525 49.1033C155.634 49.1033 156.422 49.3833 156.903 49.9567C157.384 50.5167 157.625 51.3433 157.625 52.45V53.37H156.008V52.5567C156.008 52.3833 156.008 52.2367 156.008 52.1433C156.008 52.0367 156.008 51.9167 155.995 51.77C155.981 51.6233 155.968 51.5033 155.955 51.4233C155.941 51.3433 155.915 51.2367 155.874 51.13C155.848 51.0233 155.808 50.93 155.754 50.8633C155.701 50.7967 155.647 50.73 155.567 50.6633C155.5 50.5833 155.407 50.53 155.313 50.5033C155.22 50.4633 155.113 50.4367 154.979 50.41C154.846 50.3833 154.712 50.37 154.552 50.37C154.311 50.37 154.111 50.3967 153.924 50.4367C153.75 50.49 153.603 50.57 153.483 50.6633C153.376 50.77 153.282 50.89 153.202 51.01C153.135 51.13 153.082 51.3033 153.042 51.49C153.015 51.69 152.988 51.8767 152.975 52.0633C152.975 52.25 152.961 52.4767 152.961 52.7433V57.33C152.961 58.1967 153.082 58.81 153.309 59.1433C153.536 59.4767 153.95 59.65 154.538 59.65C154.765 59.65 154.966 59.6233 155.126 59.5833C155.287 59.5433 155.434 59.4633 155.527 59.3567C155.634 59.25 155.714 59.13 155.781 59.0233C155.848 58.9033 155.888 58.7567 155.928 58.5567C155.955 58.3567 155.981 58.17 155.981 58.01C155.981 57.8367 155.981 57.6233 155.981 57.3567V56.5033H157.598V57.3567C157.598 57.7967 157.572 58.1967 157.505 58.5433C157.451 58.89 157.344 59.2233 157.197 59.53C157.05 59.8367 156.863 60.09 156.636 60.29C156.409 60.49 156.115 60.65 155.754 60.7567C155.393 60.8767 154.979 60.93 154.498 60.93" fill="#00788B"/>
<path d="M161.781 49.2233H160.097V60.81H161.781V49.2233Z" fill="#00788B"/>
<path d="M164.52 60.8233V49.2233H169.264V50.4233H166.23V54.25H168.702V55.41H166.23V59.6633H169.304V60.8233H164.52Z" fill="#00788B"/>
<path d="M171.442 60.8233V49.2233H172.604L176.092 56.9167V49.2233H177.508V60.8233H176.413L172.885 52.89V60.8233H171.442Z" fill="#00788B"/>
<path d="M183.254 60.9433C182.747 60.9433 182.306 60.8767 181.918 60.7433C181.531 60.61 181.223 60.4367 180.983 60.21C180.742 59.9833 180.542 59.7033 180.381 59.37C180.221 59.0367 180.114 58.69 180.061 58.3167C180.007 57.9433 179.967 57.53 179.967 57.0767V52.9833C179.967 52.49 179.994 52.0633 180.061 51.6767C180.128 51.29 180.234 50.9433 180.381 50.61C180.542 50.2767 180.742 50.01 180.983 49.7967C181.223 49.5833 181.544 49.41 181.931 49.29C182.319 49.17 182.76 49.1033 183.268 49.1033C184.377 49.1033 185.165 49.3833 185.646 49.9567C186.127 50.5167 186.368 51.3433 186.368 52.45V53.37H184.751V52.5567C184.751 52.3833 184.751 52.2367 184.751 52.1433C184.751 52.0367 184.751 51.9167 184.751 51.77C184.751 51.6233 184.724 51.5033 184.711 51.4233C184.684 51.3433 184.671 51.2367 184.631 51.13C184.604 51.0233 184.564 50.93 184.51 50.8633C184.457 50.7967 184.404 50.73 184.323 50.6633C184.257 50.5833 184.163 50.53 184.069 50.5033C183.976 50.4633 183.869 50.4367 183.735 50.41C183.602 50.3833 183.468 50.37 183.308 50.37C183.067 50.37 182.867 50.3967 182.693 50.4367C182.519 50.49 182.372 50.57 182.252 50.6633C182.145 50.77 182.052 50.89 181.972 51.01C181.905 51.13 181.851 51.3033 181.811 51.49C181.771 51.69 181.758 51.8767 181.744 52.0633C181.744 52.25 181.731 52.4767 181.731 52.7433V57.33C181.731 58.1967 181.851 58.81 182.078 59.1433C182.306 59.4767 182.72 59.65 183.308 59.65C183.535 59.65 183.735 59.6233 183.896 59.5833C184.056 59.5433 184.203 59.4633 184.297 59.3567C184.404 59.25 184.484 59.13 184.551 59.0233C184.617 58.9033 184.657 58.7567 184.684 58.5567C184.711 58.3567 184.738 58.17 184.738 58.01C184.738 57.8367 184.738 57.6233 184.738 57.3567V56.5033H186.354V57.3567C186.354 57.7967 186.328 58.1967 186.261 58.5433C186.194 58.89 186.101 59.2233 185.954 59.53C185.807 59.8367 185.62 60.09 185.392 60.29C185.165 60.49 184.871 60.65 184.51 60.7567C184.15 60.8767 183.735 60.93 183.254 60.93" fill="#00788B"/>
<path d="M188.746 60.8233V49.2233H193.49V50.4233H190.443V54.25H192.916V55.41H190.443V59.6633H193.517V60.8233H188.746Z" fill="#00788B"/>
</svg>
