<svg width="203" height="61" viewBox="0 0 203 61" fill="none" xmlns="http://www.w3.org/2000/svg">
<path d="M43.2279 1.8V28.5067C43.2279 35.04 39.9007 38.64 33.8474 38.64C27.7942 38.64 24.5203 35.04 24.5203 28.5067V1.8H26.9657V28.5067C26.9657 33.52 29.3442 36.1867 33.8474 36.1867C38.3506 36.1867 40.7826 33.5333 40.7826 28.5067V1.8H43.2279Z" fill="currentColor"/>
<path d="M157.438 10.8667C157.451 10.7067 157.465 10.5333 157.465 10.3467C157.465 6.08 154.057 1.74667 147.55 1.74667C141.042 1.74667 137.407 5.72 137.407 12.64V27.8267C137.407 34.7467 141.055 38.72 147.416 38.72C153.777 38.72 157.465 34.4 157.465 30.12C157.465 29.96 157.465 29.6933 157.425 29.4H153.576C153.202 31.7733 152.748 34.7333 147.683 34.7333C143.26 34.7333 141.296 32.6 141.296 27.8133V12.6267C141.296 7.90667 143.287 5.70667 147.55 5.70667C151.331 5.70667 153.362 7.48 153.576 10.9067L157.438 10.8533V10.8667Z" fill="currentColor"/>
<path d="M180.275 1.92V27.8267C180.275 34.8533 176.693 38.72 170.172 38.72C163.651 38.72 160.124 34.8533 160.124 27.8267V1.92H164.012V27.8267C164.012 32.48 166.03 34.7467 170.172 34.7467C174.315 34.7467 176.386 32.4133 176.386 27.8267V1.92H180.275Z" fill="currentColor"/>
<path d="M199.303 7.14667C198.327 6.61333 196.363 5.66667 193.717 5.66667C189.602 5.66667 187.504 7.4 187.504 10.8133C187.504 14.44 189.855 15.4933 193.677 16.8933C197.766 18.3867 202.844 20.2533 202.844 28.1467C202.844 34.8533 199.143 38.7067 192.702 38.7067C188.666 38.7067 185.7 37.3067 184.163 35.6267C183.548 34.96 183.923 35.32 183.562 34.7867L186.167 32.1467C187.116 33.2933 188.653 34.7333 192.475 34.7333C196.777 34.7333 198.955 32.6 198.955 28.3867C198.955 23.2667 195.682 22.0533 191.9 20.64C188.011 19.1867 183.615 17.5467 183.615 11C183.615 5.17333 187.41 1.69333 193.757 1.69333C196.47 1.69333 199.918 2.37333 201.334 3.81333L199.303 7.14667Z" fill="currentColor"/>
<path d="M99.952 19.7867C99.952 10.72 107.007 3.34667 115.68 3.34667C124.352 3.34667 131.408 10.72 131.408 19.7867C131.408 28.8533 124.352 36.2267 115.68 36.2267C107.007 36.2267 99.952 28.8533 99.952 19.7867ZM134.615 19.7867C134.615 8.88 126.116 0 115.68 0C105.244 0 96.745 8.88 96.745 19.7867C96.745 30.6933 105.244 39.5733 115.68 39.5733C126.116 39.5733 134.615 30.6933 134.615 19.7867Z" fill="currentColor"/>
<path d="M110.215 12.16C110.789 12.16 111.27 11.6267 111.27 10.96C111.27 10.2933 110.802 9.78667 110.215 9.78667H106.62C105.992 9.78667 105.471 10.2933 105.471 10.92V28.68C105.471 29.3067 105.979 29.8133 106.62 29.8133H110.215C110.802 29.8133 111.27 29.2933 111.27 28.64C111.27 27.9867 110.789 27.44 110.215 27.44H107.809V12.1733H110.215V12.16Z" fill="currentColor"/>
<path d="M121.158 27.4267C120.557 27.4267 120.076 27.96 120.076 28.6267C120.076 29.2933 120.557 29.8 121.158 29.8H124.753C125.394 29.8 125.902 29.3067 125.902 28.68V10.92C125.902 10.2933 125.381 9.78667 124.753 9.78667H121.158C120.557 9.78667 120.076 10.3067 120.076 10.96C120.076 11.6133 120.557 12.16 121.158 12.16H123.564V27.4267H121.158Z" fill="currentColor"/>
<path d="M83.5295 38.5867V22H91.6138V18.12H83.5295V5.72H97.8007V1.74667H81.5385C80.4427 1.74667 79.641 2.54667 79.641 3.64V38.5867H83.5295Z" fill="currentColor"/>
<path d="M83.5028 1.74667H79.641V7.81333H83.5028V1.74667Z" fill="currentColor"/>
<path d="M69.6858 8.08V38.5867H72.1311V3.38667C69.6056 5.5 71.2332 4.13805 70.2031 5C69.6056 5.5 69.4346 5.6431 67.4944 7.26667L60.5859 22.2133L52.2343 4.17333C51.8601 3.41333 51.0851 2.14667 50.2433 2.14667C49.4682 2.14667 49.0139 2.6 49.0139 3.38667V38.5867H51.4592V8.04L60.5725 27.36L69.6724 8.08H69.6858Z" fill="currentColor"/>
<path d="M53.6775 7.26667L51.1252 1.81333H49.0273V5.41333L53.6775 7.26667Z" fill="currentColor"/>
<path d="M67.4944 7.26667L70.0332 1.81333H72.1445L72.1378 2.6L72.1311 3.38667C70.2031 5 67.4944 7.26667 67.4944 7.26667Z" fill="currentColor"/>
<path d="M4.04886 6.32L2.01775 1.77333H0V6.78666L4.04886 6.32Z" fill="currentColor"/>
<path d="M2.45871 38.5867L2.3919 7.4L15.7812 35.8667C16.2623 36.8133 16.7968 37.68 17.505 37.68C18.1197 37.68 18.7343 37.3333 18.7343 36.5467V1.74667H16.289L16.3424 31.8L3.18029 4.50667C2.67252 3.52 2.05784 2.49333 1.22936 2.49333C0.400877 2.49333 0 2.89333 0 3.58667V38.5867H2.45871Z" fill="currentColor"/>
<path d="M14.779 33.7334L16.9705 38.5867H18.721L18.7076 33.2667L14.779 33.7334Z" fill="currentColor"/>
<path d="M11.4116 58.5867C11.6254 58.68 11.906 58.7333 12.2401 58.7333C12.5742 58.7333 12.8548 58.68 13.0686 58.5867C13.2824 58.4933 13.4561 58.3467 13.563 58.1333C13.6833 57.9333 13.7501 57.7067 13.7902 57.48C13.8303 57.24 13.857 56.9467 13.857 56.5867V51.5067C13.857 51.16 13.8436 50.8667 13.7902 50.6267C13.7501 50.3867 13.6699 50.1733 13.563 49.9867C13.4561 49.7867 13.2824 49.6533 13.0686 49.56C12.8414 49.4667 12.5742 49.4267 12.2401 49.4267C11.906 49.4267 11.6254 49.4667 11.4116 49.56C11.1978 49.6533 11.0241 49.8 10.9172 49.9867C10.797 50.1867 10.7301 50.4 10.6901 50.6267C10.65 50.8667 10.6232 51.1467 10.6232 51.5067V56.5867C10.6232 56.9467 10.65 57.24 10.6901 57.48C10.7301 57.72 10.8103 57.9467 10.9172 58.1333C11.0241 58.3333 11.1978 58.48 11.4116 58.5867ZM12.2401 60C11.6254 60 11.1043 59.9067 10.6633 59.7467C10.2224 59.5733 9.8883 59.32 9.62105 58.9867C9.36716 58.6533 9.18008 58.2533 9.05982 57.8133C8.93956 57.36 8.88611 56.84 8.88611 56.2533V51.8667C8.88611 50.6533 9.15336 49.7467 9.66113 49.12C10.1823 48.4933 11.0375 48.1867 12.2267 48.1867C13.416 48.1867 14.2712 48.5067 14.7924 49.1333C15.3135 49.76 15.5808 50.6667 15.5808 51.8667V56.2667C15.5808 57.48 15.3135 58.4 14.7924 59.0533C14.2712 59.7067 13.416 60.0267 12.2267 60.0267" fill="currentColor"/>
<path d="M19.7499 53.32H20.5249C21.2732 53.32 21.7944 53.2 22.075 52.9467C22.3556 52.6933 22.5026 52.2133 22.5026 51.5067C22.5026 51.2133 22.5026 50.9733 22.4759 50.7867C22.4625 50.6 22.4224 50.4133 22.3823 50.2533C22.3289 50.08 22.2621 49.96 22.1819 49.8667C22.1017 49.7733 21.9814 49.6933 21.8345 49.6267C21.6875 49.56 21.5138 49.52 21.3133 49.4933C21.1129 49.4667 20.8724 49.4533 20.565 49.4533H19.7633V53.32H19.7499ZM18.0395 59.88V48.2933H21.0728C22.1418 48.2933 22.9035 48.56 23.3845 49.1067C23.8656 49.6533 24.1061 50.44 24.1061 51.4933C24.1061 52.44 23.8522 53.1733 23.3311 53.6933C22.8099 54.2133 22.0616 54.48 21.0862 54.48H19.7499V59.88H18.0395Z" fill="currentColor"/>
<path d="M26.057 59.88V48.28H30.8007V49.48H27.7674V53.3067H30.2395V54.4667H27.7674V58.72H30.8408V59.88H26.057Z" fill="currentColor"/>
<path d="M32.9788 59.88V48.28H34.1414L37.629 55.9733V48.28H39.0454V59.88H37.9631L34.422 51.9467V59.88H32.9788Z" fill="currentColor"/>
<path d="M49.0139 60C48.5061 60 48.0652 59.9333 47.6777 59.8C47.2901 59.6666 46.9828 59.4933 46.7423 59.2666C46.5017 59.04 46.3013 58.76 46.141 58.4266C45.9806 58.0933 45.8737 57.7466 45.8203 57.3733C45.7668 57 45.7267 56.5866 45.7267 56.1333V52.04C45.7267 51.5466 45.7534 51.12 45.8203 50.7333C45.8871 50.3466 45.994 50 46.141 49.6666C46.2879 49.3333 46.4884 49.0666 46.7423 48.8533C46.9828 48.64 47.3035 48.4666 47.691 48.3466C48.0785 48.2266 48.5195 48.16 49.0273 48.16C50.1364 48.16 50.9248 48.44 51.4058 49.0133C51.8869 49.5733 52.1274 50.4 52.1274 51.5066V52.4266H50.5105V51.6133C50.5105 51.44 50.5105 51.2933 50.5105 51.2C50.5105 51.0933 50.5105 50.9733 50.4972 50.8266C50.4972 50.68 50.4704 50.56 50.4571 50.48C50.4303 50.4 50.4036 50.2933 50.3769 50.1866C50.3502 50.08 50.3101 49.9866 50.2566 49.92C50.2032 49.8533 50.1497 49.7866 50.0695 49.72C50.0027 49.64 49.9092 49.5866 49.8157 49.56C49.7221 49.52 49.6152 49.4933 49.4816 49.4666C49.348 49.44 49.2143 49.4266 49.054 49.4266C48.8135 49.4266 48.613 49.4533 48.4393 49.4933C48.2656 49.5466 48.1186 49.6266 47.9983 49.72C47.8781 49.8266 47.7979 49.9466 47.7177 50.0666C47.6509 50.1866 47.5975 50.36 47.5574 50.5466C47.5173 50.7466 47.5039 50.9333 47.4906 51.12C47.4772 51.3066 47.4772 51.5333 47.4772 51.8V56.3866C47.4772 57.2533 47.5975 57.8666 47.8246 58.2C48.0518 58.5333 48.466 58.7066 49.054 58.7066C49.2812 58.7066 49.4816 58.68 49.6419 58.64C49.8023 58.6 49.9493 58.52 50.0428 58.4133C50.1497 58.3066 50.2299 58.1866 50.2967 58.08C50.3635 57.96 50.4036 57.8133 50.4437 57.6133C50.4704 57.4133 50.4972 57.2266 50.4972 57.0666C50.4972 56.8933 50.4972 56.68 50.4972 56.4133V55.56H52.114V56.4133C52.114 56.8533 52.0873 57.2533 52.0205 57.6C51.967 57.9466 51.8601 58.28 51.7131 58.5866C51.5662 58.8933 51.3791 59.1466 51.1519 59.3466C50.9248 59.5466 50.6174 59.7066 50.27 59.8133C49.9092 59.9333 49.495 59.9866 49.0273 59.9866" fill="currentColor"/>
<path d="M56.7909 58.5867C57.0047 58.68 57.2854 58.7333 57.6194 58.7333C57.9535 58.7333 58.2341 58.68 58.4479 58.5867C58.6617 58.4933 58.8354 58.3467 58.9423 58.1333C59.0492 57.9333 59.1294 57.7067 59.1695 57.48C59.2096 57.24 59.2363 56.9467 59.2363 56.5867V51.5067C59.2363 51.16 59.2229 50.8667 59.1695 50.6267C59.1294 50.3867 59.0492 50.1733 58.9423 49.9867C58.822 49.7867 58.6617 49.6533 58.4479 49.56C58.2207 49.4667 57.9535 49.4267 57.6194 49.4267C57.2854 49.4267 57.0047 49.4667 56.7909 49.56C56.5771 49.6533 56.4034 49.8 56.2965 49.9867C56.1763 50.1867 56.1094 50.4 56.0694 50.6267C56.0293 50.8667 56.0025 51.1467 56.0025 51.5067V56.5867C56.0025 56.9467 56.0293 57.24 56.0694 57.48C56.1094 57.72 56.1896 57.9467 56.2965 58.1333C56.4034 58.3333 56.5771 58.48 56.7909 58.5867ZM57.6194 60C57.0047 60 56.4836 59.9067 56.0426 59.7467C55.6017 59.5733 55.2676 59.32 55.0004 58.9867C54.7465 58.6533 54.5594 58.2533 54.4391 57.8133C54.3189 57.36 54.2654 56.84 54.2654 56.2533V51.8667C54.2654 50.6533 54.5327 49.7467 55.0404 49.12C55.5616 48.4933 56.4168 48.1867 57.6061 48.1867C58.7953 48.1867 59.6505 48.5067 60.1717 49.1333C60.6928 49.76 60.9601 50.6667 60.9601 51.8667V56.2667C60.9601 57.48 60.6928 58.4 60.1717 59.0533C59.6505 59.7067 58.7953 60.0267 57.6061 60.0267" fill="currentColor"/>
<path d="M65.1158 58.72H66.0779C66.3452 58.72 66.5723 58.6933 66.7728 58.6533C66.9732 58.6 67.1336 58.5467 67.2672 58.48C67.4008 58.4133 67.5077 58.3067 67.6013 58.16C67.6948 58.0133 67.7616 57.8667 67.8017 57.7467C67.8552 57.6267 67.8819 57.44 67.9086 57.1867C67.9353 56.9333 67.9487 56.7333 67.9487 56.5467C67.9487 56.36 67.9487 56.12 67.9487 55.7867V52.0133C67.9487 51.7333 67.9487 51.4933 67.9353 51.3067C67.9353 51.12 67.9086 50.92 67.8819 50.7333C67.8552 50.5467 67.8017 50.3867 67.7483 50.2667C67.6948 50.1467 67.6146 50.0267 67.5211 49.92C67.4276 49.8133 67.3073 49.72 67.1737 49.6667C67.04 49.6133 66.8797 49.56 66.6926 49.5333C66.5055 49.5067 66.2917 49.48 66.0378 49.48H65.1158V58.72ZM63.4188 59.88V48.2933H66.0779C67.4008 48.2933 68.3362 48.5733 68.8841 49.1467C69.4319 49.72 69.6992 50.6133 69.6992 51.8267V56.0933C69.6992 57.36 69.4319 58.32 68.8841 58.9467C68.3496 59.5733 67.4543 59.88 66.1982 59.88H63.4054H63.4188Z" fill="currentColor"/>
<path d="M72.1445 59.88V48.28H76.8882V49.48H73.8549V53.3067H76.327V54.4667H73.8549V58.72H76.9283V59.88H72.1445Z" fill="currentColor"/>
<path d="M83.142 54.7334H87.7922V55.8933H83.142V54.7334ZM83.142 52.2H87.7922V53.3733H83.142V52.2Z" fill="currentColor"/>
<path d="M97.3998 58.72C98.1348 58.72 98.6425 58.56 98.9098 58.2267C99.177 57.8933 99.3107 57.3467 99.3107 56.56C99.3107 55.7733 99.1503 55.2667 98.8296 54.9067C98.5089 54.5467 97.9744 54.36 97.2528 54.36H96.2373V58.72H97.3998ZM96.2506 53.12H97.2528C97.9611 53.12 98.4421 52.9733 98.7227 52.68C98.99 52.3867 99.137 51.88 99.137 51.1867C99.137 50.96 99.1236 50.76 99.0835 50.5867C99.0434 50.4133 99.0033 50.2667 98.9499 50.1467C98.8964 50.0267 98.8163 49.92 98.696 49.84C98.5891 49.76 98.4688 49.6933 98.3619 49.64C98.255 49.5867 98.0947 49.5467 97.9076 49.5333C97.7072 49.5067 97.5201 49.4933 97.3464 49.48C97.1727 49.48 96.9321 49.48 96.6515 49.48H96.2506V53.12ZM94.5402 48.2933H97.3464C98.4555 48.2933 99.284 48.5333 99.8318 49C100.366 49.4667 100.634 50.2 100.634 51.2C100.634 52.68 100.046 53.4933 98.8697 53.64C99.5913 53.8133 100.126 54.1333 100.46 54.6133C100.794 55.0933 100.954 55.7467 100.954 56.5733C100.954 57.6133 100.7 58.4267 100.179 59.0133C99.6581 59.6 98.8697 59.8933 97.8007 59.8933H94.5402V48.2933Z" fill="currentColor"/>
<path d="M103.226 59.88V48.28H107.983V49.48H104.936V53.3067H107.408V54.4667H104.936V58.72H108.01V59.88H103.226Z" fill="currentColor"/>
<path d="M111.417 59.88V49.48H109.172V48.28H115.279V49.48H113.114V59.88H111.417Z" fill="currentColor"/>
<path d="M118.232 59.88V49.48H115.987V48.28H122.094V49.48H119.942V59.88H118.232Z" fill="currentColor"/>
<path d="M123.791 59.88V48.28H128.535V49.48H125.501V53.3067H127.973V54.4667H125.501V58.72H128.575V59.88H123.791Z" fill="currentColor"/>
<path d="M132.423 53.28H133.065C133.813 53.28 134.334 53.1467 134.655 52.8667C134.975 52.5867 135.136 52.0933 135.136 51.36C135.136 50.6267 135.002 50.16 134.722 49.88C134.454 49.6 133.933 49.4533 133.171 49.4533H132.423V53.28ZM130.713 59.88V48.2933H133.171C134.414 48.2933 135.323 48.5333 135.897 49.0133C136.472 49.4933 136.766 50.28 136.766 51.36C136.766 52.8533 136.258 53.76 135.256 54.0667L137.007 59.88H135.35L133.733 54.44H132.41V59.88H130.699H130.713Z" fill="currentColor"/>
<path d="M146.427 60C145.398 60 144.61 59.6933 144.075 59.0933C143.541 58.4933 143.233 57.6667 143.167 56.6267L144.69 56.24C144.797 57.8933 145.371 58.7333 146.427 58.7333C146.868 58.7333 147.202 58.6133 147.429 58.3867C147.656 58.16 147.777 57.8133 147.777 57.3733C147.777 57.12 147.75 56.9067 147.683 56.6933C147.616 56.4933 147.523 56.2933 147.376 56.1067C147.229 55.92 147.095 55.76 146.975 55.64C146.855 55.52 146.668 55.36 146.44 55.1467L144.383 53.4133C143.968 53.0533 143.661 52.68 143.474 52.2933C143.287 51.8933 143.193 51.4133 143.193 50.8533C143.193 50.0133 143.447 49.36 143.968 48.8933C144.49 48.4267 145.184 48.1867 146.08 48.1733C147.055 48.16 147.79 48.4 148.285 48.8933C148.766 49.3867 149.06 50.1467 149.166 51.1733L147.723 51.5467C147.71 51.2933 147.67 51.0667 147.643 50.88C147.616 50.68 147.55 50.4933 147.469 50.2933C147.389 50.0933 147.296 49.9333 147.175 49.8133C147.055 49.6933 146.908 49.5867 146.721 49.52C146.534 49.4533 146.32 49.4133 146.066 49.4267C145.158 49.4933 144.717 49.9067 144.717 50.7067C144.717 51.0533 144.783 51.3333 144.904 51.56C145.024 51.7867 145.238 52.0267 145.518 52.28L147.59 54C148.124 54.4533 148.552 54.9467 148.872 55.4667C149.193 55.9867 149.354 56.5733 149.354 57.24C149.354 58.0933 149.086 58.76 148.538 59.2533C148.004 59.7467 147.296 60 146.414 60" fill="currentColor"/>
<path d="M154.525 60C154.017 60 153.576 59.9333 153.189 59.8C152.801 59.6666 152.494 59.4933 152.24 59.2666C151.999 59.04 151.799 58.76 151.639 58.4266C151.478 58.0933 151.371 57.7466 151.318 57.3733C151.264 57 151.224 56.5866 151.224 56.1333V52.04C151.224 51.5466 151.251 51.12 151.318 50.7333C151.385 50.3466 151.492 50 151.639 49.6666C151.786 49.3333 151.986 49.0666 152.24 48.8533C152.48 48.64 152.801 48.4666 153.189 48.3466C153.576 48.2266 154.017 48.16 154.525 48.16C155.634 48.16 156.422 48.44 156.903 49.0133C157.384 49.5733 157.625 50.4 157.625 51.5066V52.4266H156.008V51.6133C156.008 51.44 156.008 51.2933 156.008 51.2C156.008 51.0933 156.008 50.9733 155.995 50.8266C155.981 50.68 155.968 50.56 155.955 50.48C155.941 50.4 155.915 50.2933 155.874 50.1866C155.848 50.08 155.808 49.9866 155.754 49.92C155.701 49.8533 155.647 49.7866 155.567 49.72C155.5 49.64 155.407 49.5866 155.313 49.56C155.22 49.52 155.113 49.4933 154.979 49.4666C154.846 49.44 154.712 49.4266 154.552 49.4266C154.311 49.4266 154.111 49.4533 153.924 49.4933C153.75 49.5466 153.603 49.6266 153.483 49.72C153.376 49.8266 153.282 49.9466 153.202 50.0666C153.135 50.1866 153.082 50.36 153.042 50.5466C153.015 50.7466 152.988 50.9333 152.975 51.12C152.975 51.3066 152.961 51.5333 152.961 51.8V56.3866C152.961 57.2533 153.082 57.8666 153.309 58.2C153.536 58.5333 153.95 58.7066 154.538 58.7066C154.765 58.7066 154.966 58.68 155.126 58.64C155.287 58.6 155.434 58.52 155.527 58.4133C155.634 58.3066 155.714 58.1866 155.781 58.08C155.848 57.96 155.888 57.8133 155.928 57.6133C155.955 57.4133 155.981 57.2266 155.981 57.0666C155.981 56.8933 155.981 56.68 155.981 56.4133V55.56H157.598V56.4133C157.598 56.8533 157.572 57.2533 157.505 57.6C157.451 57.9466 157.344 58.28 157.197 58.5866C157.05 58.8933 156.863 59.1466 156.636 59.3466C156.409 59.5466 156.115 59.7066 155.754 59.8133C155.393 59.9333 154.979 59.9866 154.498 59.9866" fill="currentColor"/>
<path d="M161.781 48.28H160.097V59.8667H161.781V48.28Z" fill="currentColor"/>
<path d="M164.52 59.88V48.28H169.264V49.48H166.23V53.3067H168.702V54.4667H166.23V58.72H169.304V59.88H164.52Z" fill="currentColor"/>
<path d="M171.442 59.88V48.28H172.604L176.092 55.9733V48.28H177.508V59.88H176.413L172.885 51.9467V59.88H171.442Z" fill="currentColor"/>
<path d="M183.254 60C182.747 60 182.306 59.9333 181.918 59.8C181.531 59.6666 181.223 59.4933 180.983 59.2666C180.742 59.04 180.542 58.76 180.381 58.4266C180.221 58.0933 180.114 57.7466 180.061 57.3733C180.007 57 179.967 56.5866 179.967 56.1333V52.04C179.967 51.5466 179.994 51.12 180.061 50.7333C180.128 50.3466 180.234 50 180.381 49.6666C180.542 49.3333 180.742 49.0666 180.983 48.8533C181.223 48.64 181.544 48.4666 181.931 48.3466C182.319 48.2266 182.76 48.16 183.268 48.16C184.377 48.16 185.165 48.44 185.646 49.0133C186.127 49.5733 186.368 50.4 186.368 51.5066V52.4266H184.751V51.6133C184.751 51.44 184.751 51.2933 184.751 51.2C184.751 51.0933 184.751 50.9733 184.751 50.8266C184.751 50.68 184.724 50.56 184.711 50.48C184.684 50.4 184.671 50.2933 184.631 50.1866C184.604 50.08 184.564 49.9866 184.51 49.92C184.457 49.8533 184.404 49.7866 184.323 49.72C184.257 49.64 184.163 49.5866 184.069 49.56C183.976 49.52 183.869 49.4933 183.735 49.4666C183.602 49.44 183.468 49.4266 183.308 49.4266C183.067 49.4266 182.867 49.4533 182.693 49.4933C182.519 49.5466 182.372 49.6266 182.252 49.72C182.145 49.8266 182.052 49.9466 181.972 50.0666C181.905 50.1866 181.851 50.36 181.811 50.5466C181.771 50.7466 181.758 50.9333 181.744 51.12C181.744 51.3066 181.731 51.5333 181.731 51.8V56.3866C181.731 57.2533 181.851 57.8666 182.078 58.2C182.306 58.5333 182.72 58.7066 183.308 58.7066C183.535 58.7066 183.735 58.68 183.896 58.64C184.056 58.6 184.203 58.52 184.297 58.4133C184.404 58.3066 184.484 58.1866 184.551 58.08C184.617 57.96 184.657 57.8133 184.684 57.6133C184.711 57.4133 184.738 57.2266 184.738 57.0666C184.738 56.8933 184.738 56.68 184.738 56.4133V55.56H186.354V56.4133C186.354 56.8533 186.328 57.2533 186.261 57.6C186.194 57.9466 186.101 58.28 185.954 58.5866C185.807 58.8933 185.62 59.1466 185.392 59.3466C185.165 59.5466 184.871 59.7066 184.51 59.8133C184.15 59.9333 183.735 59.9866 183.254 59.9866" fill="currentColor"/>
<path d="M188.746 59.88V48.28H193.49V49.48H190.443V53.3067H192.916V54.4667H190.443V58.72H193.517V59.88H188.746Z" fill="currentColor"/>
</svg>
