<svg width="48" height="48" viewBox="0 0 48 48" fill="none" xmlns="http://www.w3.org/2000/svg">
<path d="M34.3053 30.1887H32.1372L31.3688 29.4477C34.0583 26.319 35.6775 22.2573 35.6775 17.8388C35.6775 7.98628 27.6913 0 17.8388 0C7.98628 0 0 7.98628 0 17.8388C0 27.6913 7.98628 35.6775 17.8388 35.6775C22.2573 35.6775 26.319 34.0583 29.4477 31.3688L30.1887 32.1372V34.3053L43.9108 48L48 43.9108L34.3053 30.1887ZM17.8388 30.1887C11.0051 30.1887 5.48885 24.6724 5.48885 17.8388C5.48885 11.0051 11.0051 5.48885 17.8388 5.48885C24.6724 5.48885 30.1887 11.0051 30.1887 17.8388C30.1887 24.6724 24.6724 30.1887 17.8388 30.1887Z" fill="#02798A"/>
</svg>
